<svg xmlns="http://www.w3.org/2000/svg" viewBox="0 0 1200 675" width="1200" height="675" font-family="ui-monospace, SFMono-Regular, Menlo, monospace">
  
  <defs>
    <pattern id="dots" width="34" height="34" patternUnits="userSpaceOnUse">
      <circle cx="1.5" cy="1.5" r="1.2" fill="#ffffff" opacity="0.05"/>
    </pattern>
    <linearGradient id="fade" x1="0" y1="0" x2="0" y2="1">
      <stop offset="0" stop-color="hsl(11,90%,55%)" stop-opacity="0.35"/>
      <stop offset="1" stop-color="hsl(11,90%,55%)" stop-opacity="0"/>
    </linearGradient>
  </defs>
  
  <rect width="1200" height="675" fill="#0a0a0a"/>
  <rect width="1200" height="675" fill="url(#dots)"/>
  <rect x="28" y="28" width="1144" height="619" fill="none" stroke="#333333" stroke-width="1"/>
  <line x1="28" y1="92" x2="1172" y2="92" stroke="#333333" stroke-width="1"/>
  <line x1="28" y1="611" x2="1172" y2="611" stroke="#333333" stroke-width="1"/>
  <text x="52" y="72" font-family="ui-monospace, SFMono-Regular, Menlo, monospace" font-size="26" font-weight="700" fill="hsl(11,90%,55%)">07</text>
  <text x="92" y="71" font-family="ui-monospace, SFMono-Regular, Menlo, monospace" font-size="16" letter-spacing="4" fill="#8a8a8a">// QUANT · MARKETS</text>
  <text x="52" y="641" font-family="ui-monospace, SFMono-Regular, Menlo, monospace" font-size="16" letter-spacing="3" fill="#f5f5f5">POLYMARKET CLI</text>
  <text x="1148" y="641" text-anchor="end" font-family="ui-monospace, SFMono-Regular, Menlo, monospace" font-size="14" letter-spacing="3" fill="#8a8a8a">JL // 2025</text>
  
    <rect x="150" y="150" width="900" height="400" rx="6" fill="#121212" stroke="#4d4d4d"/>
    <line x1="150" y1="188" x2="1050" y2="188" stroke="#4d4d4d"/>
    <circle cx="176" cy="169" r="5" fill="hsl(11,90%,55%)"/><circle cx="196" cy="169" r="5" fill="#4d4d4d"/><circle cx="216" cy="169" r="5" fill="#4d4d4d"/>
    <text x="600" y="174" text-anchor="middle" font-family="ui-monospace, SFMono-Regular, Menlo, monospace" font-size="13" fill="#8a8a8a">polymarket recommend --top 5</text>
    <text x="230" y="234" font-family="ui-monospace, SFMono-Regular, Menlo, monospace" font-size="15" fill="#8a8a8a">ELECTION 2028</text>
      <rect x="470" y="216" width="440" height="20" fill="#121212" stroke="#333333"/>
      <rect x="470" y="216" width="273" height="20" fill="#4d4d4d"/>
      <text x="930" y="232" font-family="ui-monospace, SFMono-Regular, Menlo, monospace" font-size="15" fill="#f5f5f5">62%</text><text x="230" y="290" font-family="ui-monospace, SFMono-Regular, Menlo, monospace" font-size="15" fill="#8a8a8a">RATE CUT SEP</text>
      <rect x="470" y="272" width="440" height="20" fill="#121212" stroke="#333333"/>
      <rect x="470" y="272" width="343" height="20" fill="hsl(11,90%,55%)"/>
      <text x="930" y="288" font-family="ui-monospace, SFMono-Regular, Menlo, monospace" font-size="15" fill="#f5f5f5">78%</text><text x="230" y="346" font-family="ui-monospace, SFMono-Regular, Menlo, monospace" font-size="15" fill="#8a8a8a">BTC > 150K</text>
      <rect x="470" y="328" width="440" height="20" fill="#121212" stroke="#333333"/>
      <rect x="470" y="328" width="150" height="20" fill="#4d4d4d"/>
      <text x="930" y="344" font-family="ui-monospace, SFMono-Regular, Menlo, monospace" font-size="15" fill="#f5f5f5">34%</text><text x="230" y="402" font-family="ui-monospace, SFMono-Regular, Menlo, monospace" font-size="15" fill="#8a8a8a">AI AGI 2027</text>
      <rect x="470" y="384" width="440" height="20" fill="#121212" stroke="#333333"/>
      <rect x="470" y="384" width="79" height="20" fill="#4d4d4d"/>
      <text x="930" y="400" font-family="ui-monospace, SFMono-Regular, Menlo, monospace" font-size="15" fill="#f5f5f5">18%</text><text x="230" y="458" font-family="ui-monospace, SFMono-Regular, Menlo, monospace" font-size="15" fill="#8a8a8a">SUPERBOWL</text>
      <rect x="470" y="440" width="440" height="20" fill="#121212" stroke="#333333"/>
      <rect x="470" y="440" width="207" height="20" fill="#4d4d4d"/>
      <text x="930" y="456" font-family="ui-monospace, SFMono-Regular, Menlo, monospace" font-size="15" fill="#f5f5f5">47%</text>
</svg>