<svg xmlns="http://www.w3.org/2000/svg" viewBox="0 0 1200 675" width="1200" height="675" font-family="ui-monospace, SFMono-Regular, Menlo, monospace">
  
  <defs>
    <pattern id="dots" width="34" height="34" patternUnits="userSpaceOnUse">
      <circle cx="1.5" cy="1.5" r="1.2" fill="#ffffff" opacity="0.05"/>
    </pattern>
    <linearGradient id="fade" x1="0" y1="0" x2="0" y2="1">
      <stop offset="0" stop-color="hsl(11,90%,55%)" stop-opacity="0.35"/>
      <stop offset="1" stop-color="hsl(11,90%,55%)" stop-opacity="0"/>
    </linearGradient>
  </defs>
  
  <rect width="1200" height="675" fill="#0a0a0a"/>
  <rect width="1200" height="675" fill="url(#dots)"/>
  <rect x="28" y="28" width="1144" height="619" fill="none" stroke="#333333" stroke-width="1"/>
  <line x1="28" y1="92" x2="1172" y2="92" stroke="#333333" stroke-width="1"/>
  <line x1="28" y1="611" x2="1172" y2="611" stroke="#333333" stroke-width="1"/>
  <text x="52" y="72" font-family="ui-monospace, SFMono-Regular, Menlo, monospace" font-size="26" font-weight="700" fill="hsl(11,90%,55%)">03</text>
  <text x="92" y="71" font-family="ui-monospace, SFMono-Regular, Menlo, monospace" font-size="16" letter-spacing="4" fill="#8a8a8a">// DATA ANALYSIS</text>
  <text x="52" y="641" font-family="ui-monospace, SFMono-Regular, Menlo, monospace" font-size="16" letter-spacing="3" fill="#f5f5f5">FLIGHT DELAYS</text>
  <text x="1148" y="641" text-anchor="end" font-family="ui-monospace, SFMono-Regular, Menlo, monospace" font-size="14" letter-spacing="3" fill="#8a8a8a">JL // 2025</text>
  <path d="M 220,300 Q 325,160 430,220" fill="none" stroke="#4d4d4d" stroke-width="1.2"/><path d="M 430,220 Q 535,160 640,340" fill="none" stroke="#4d4d4d" stroke-width="1.2"/><path d="M 640,340 Q 730,200 820,260" fill="none" stroke="#4d4d4d" stroke-width="1.2"/><path d="M 220,300 Q 280,240 340,470" fill="none" stroke="#4d4d4d" stroke-width="1.2"/><path d="M 340,470 Q 430,410 520,470" fill="none" stroke="#4d4d4d" stroke-width="1.2"/><path d="M 520,470 Q 580,280 640,340" fill="none" stroke="#4d4d4d" stroke-width="1.2"/><path d="M 820,260 Q 875,200 930,420" fill="none" stroke="#4d4d4d" stroke-width="1.2"/><path d="M 640,340 Q 785,280 930,420" fill="none" stroke="#4d4d4d" stroke-width="1.2"/><path d="M 220,300 Q 430,140 820,260" fill="none" stroke="hsl(11,90%,55%)" stroke-width="2"/><circle cx="220" cy="300" r="4.5" fill="#f5f5f5"/><circle cx="430" cy="220" r="4.5" fill="#f5f5f5"/><circle cx="640" cy="340" r="4.5" fill="#f5f5f5"/><circle cx="520" cy="470" r="4.5" fill="#f5f5f5"/><circle cx="820" cy="260" r="4.5" fill="#f5f5f5"/><circle cx="930" cy="420" r="4.5" fill="#f5f5f5"/><circle cx="340" cy="470" r="4.5" fill="#f5f5f5"/>
    <g transform="translate(-70,0)"><rect x="980" y="540" width="40" height="14" fill="#4d4d4d"/><rect x="980" y="512" width="70" height="14" fill="#4d4d4d"/><rect x="980" y="484" width="55" height="14" fill="#4d4d4d"/><rect x="980" y="456" width="95" height="14" fill="#4d4d4d"/><rect x="980" y="428" width="60" height="14" fill="#4d4d4d"/><rect x="980" y="400" width="120" height="14" fill="hsl(11,90%,55%)"/><rect x="980" y="372" width="48" height="14" fill="#4d4d4d"/></g>
    <text x="600" y="600" text-anchor="middle" font-family="ui-monospace, SFMono-Regular, Menlo, monospace" font-size="14" fill="#8a8a8a">APRIL 2019 · U.S. DOT</text>
</svg>