<svg xmlns="http://www.w3.org/2000/svg" viewBox="0 0 1200 675" width="1200" height="675" font-family="ui-monospace, SFMono-Regular, Menlo, monospace">
  
  <defs>
    <pattern id="dots" width="34" height="34" patternUnits="userSpaceOnUse">
      <circle cx="1.5" cy="1.5" r="1.2" fill="#ffffff" opacity="0.05"/>
    </pattern>
    <linearGradient id="fade" x1="0" y1="0" x2="0" y2="1">
      <stop offset="0" stop-color="hsl(11,90%,55%)" stop-opacity="0.35"/>
      <stop offset="1" stop-color="hsl(11,90%,55%)" stop-opacity="0"/>
    </linearGradient>
  </defs>
  
  <rect width="1200" height="675" fill="#0a0a0a"/>
  <rect width="1200" height="675" fill="url(#dots)"/>
  <rect x="28" y="28" width="1144" height="619" fill="none" stroke="#333333" stroke-width="1"/>
  <line x1="28" y1="92" x2="1172" y2="92" stroke="#333333" stroke-width="1"/>
  <line x1="28" y1="611" x2="1172" y2="611" stroke="#333333" stroke-width="1"/>
  <text x="52" y="72" font-family="ui-monospace, SFMono-Regular, Menlo, monospace" font-size="26" font-weight="700" fill="hsl(11,90%,55%)">05</text>
  <text x="92" y="71" font-family="ui-monospace, SFMono-Regular, Menlo, monospace" font-size="16" letter-spacing="4" fill="#8a8a8a">// RETAIL ANALYTICS</text>
  <text x="52" y="641" font-family="ui-monospace, SFMono-Regular, Menlo, monospace" font-size="16" letter-spacing="3" fill="#f5f5f5">DATAPULSE</text>
  <text x="1148" y="641" text-anchor="end" font-family="ui-monospace, SFMono-Regular, Menlo, monospace" font-size="14" letter-spacing="3" fill="#8a8a8a">JL // 2024</text>
  
    <line x1="330" y1="150" x2="330" y2="520" stroke="#333333" stroke-width="1"/>
    <line x1="330" y1="520" x2="900" y2="520" stroke="#333333" stroke-width="1"/>
    <circle cx="425" cy="271" r="3.4" fill="hsl(11,90%,55%)" opacity="0.9"/><circle cx="386" cy="251" r="3.4" fill="hsl(11,90%,55%)" opacity="0.9"/><circle cx="372" cy="279" r="3.4" fill="hsl(11,90%,55%)" opacity="0.9"/><circle cx="451" cy="226" r="3.4" fill="hsl(11,90%,55%)" opacity="0.9"/><circle cx="410" cy="257" r="3.4" fill="hsl(11,90%,55%)" opacity="0.9"/><circle cx="401" cy="262" r="3.4" fill="hsl(11,90%,55%)" opacity="0.9"/><circle cx="414" cy="256" r="3.4" fill="hsl(11,90%,55%)" opacity="0.9"/><circle cx="423" cy="236" r="3.4" fill="hsl(11,90%,55%)" opacity="0.9"/><circle cx="471" cy="280" r="3.4" fill="hsl(11,90%,55%)" opacity="0.9"/><circle cx="402" cy="299" r="3.4" fill="hsl(11,90%,55%)" opacity="0.9"/><circle cx="383" cy="214" r="3.4" fill="hsl(11,90%,55%)" opacity="0.9"/><circle cx="428" cy="260" r="3.4" fill="hsl(11,90%,55%)" opacity="0.9"/><circle cx="386" cy="292" r="3.4" fill="hsl(11,90%,55%)" opacity="0.9"/><circle cx="416" cy="236" r="3.4" fill="hsl(11,90%,55%)" opacity="0.9"/><circle cx="439" cy="219" r="3.4" fill="hsl(11,90%,55%)" opacity="0.9"/><circle cx="403" cy="233" r="3.4" fill="hsl(11,90%,55%)" opacity="0.9"/><circle cx="385" cy="232" r="3.4" fill="hsl(11,90%,55%)" opacity="0.9"/><circle cx="427" cy="219" r="3.4" fill="hsl(11,90%,55%)" opacity="0.9"/><circle cx="411" cy="257" r="3.4" fill="hsl(11,90%,55%)" opacity="0.9"/><circle cx="434" cy="249" r="3.4" fill="hsl(11,90%,55%)" opacity="0.9"/><circle cx="435" cy="274" r="3.4" fill="hsl(11,90%,55%)" opacity="0.9"/><circle cx="419" cy="328" r="3.4" fill="hsl(11,90%,55%)" opacity="0.9"/><circle cx="533" cy="459" r="3.4" fill="#d0d0d0" opacity="0.9"/><circle cx="546" cy="378" r="3.4" fill="#d0d0d0" opacity="0.9"/><circle cx="543" cy="393" r="3.4" fill="#d0d0d0" opacity="0.9"/><circle cx="561" cy="462" r="3.4" fill="#d0d0d0" opacity="0.9"/><circle cx="520" cy="441" r="3.4" fill="#d0d0d0" opacity="0.9"/><circle cx="565" cy="413" r="3.4" fill="#d0d0d0" opacity="0.9"/><circle cx="498" cy="410" r="3.4" fill="#d0d0d0" opacity="0.9"/><circle cx="571" cy="380" r="3.4" fill="#d0d0d0" opacity="0.9"/><circle cx="493" cy="420" r="3.4" fill="#d0d0d0" opacity="0.9"/><circle cx="501" cy="402" r="3.4" fill="#d0d0d0" opacity="0.9"/><circle cx="622" cy="420" r="3.4" fill="#d0d0d0" opacity="0.9"/><circle cx="553" cy="376" r="3.4" fill="#d0d0d0" opacity="0.9"/><circle cx="564" cy="421" r="3.4" fill="#d0d0d0" opacity="0.9"/><circle cx="566" cy="418" r="3.4" fill="#d0d0d0" opacity="0.9"/><circle cx="557" cy="428" r="3.4" fill="#d0d0d0" opacity="0.9"/><circle cx="566" cy="413" r="3.4" fill="#d0d0d0" opacity="0.9"/><circle cx="539" cy="414" r="3.4" fill="#d0d0d0" opacity="0.9"/><circle cx="581" cy="383" r="3.4" fill="#d0d0d0" opacity="0.9"/><circle cx="601" cy="412" r="3.4" fill="#d0d0d0" opacity="0.9"/><circle cx="536" cy="401" r="3.4" fill="#d0d0d0" opacity="0.9"/><circle cx="600" cy="373" r="3.4" fill="#d0d0d0" opacity="0.9"/><circle cx="559" cy="406" r="3.4" fill="#d0d0d0" opacity="0.9"/><circle cx="773" cy="311" r="3.4" fill="#4d4d4d" opacity="0.9"/><circle cx="698" cy="319" r="3.4" fill="#4d4d4d" opacity="0.9"/><circle cx="739" cy="364" r="3.4" fill="#4d4d4d" opacity="0.9"/><circle cx="709" cy="300" r="3.4" fill="#4d4d4d" opacity="0.9"/><circle cx="761" cy="281" r="3.4" fill="#4d4d4d" opacity="0.9"/><circle cx="710" cy="337" r="3.4" fill="#4d4d4d" opacity="0.9"/><circle cx="753" cy="299" r="3.4" fill="#4d4d4d" opacity="0.9"/><circle cx="752" cy="311" r="3.4" fill="#4d4d4d" opacity="0.9"/><circle cx="758" cy="330" r="3.4" fill="#4d4d4d" opacity="0.9"/><circle cx="778" cy="315" r="3.4" fill="#4d4d4d" opacity="0.9"/><circle cx="790" cy="293" r="3.4" fill="#4d4d4d" opacity="0.9"/><circle cx="705" cy="293" r="3.4" fill="#4d4d4d" opacity="0.9"/><circle cx="813" cy="306" r="3.4" fill="#4d4d4d" opacity="0.9"/><circle cx="707" cy="341" r="3.4" fill="#4d4d4d" opacity="0.9"/><circle cx="794" cy="278" r="3.4" fill="#4d4d4d" opacity="0.9"/><circle cx="766" cy="300" r="3.4" fill="#4d4d4d" opacity="0.9"/><circle cx="745" cy="357" r="3.4" fill="#4d4d4d" opacity="0.9"/><circle cx="731" cy="260" r="3.4" fill="#4d4d4d" opacity="0.9"/><circle cx="817" cy="348" r="3.4" fill="#4d4d4d" opacity="0.9"/><circle cx="728" cy="342" r="3.4" fill="#4d4d4d" opacity="0.9"/><circle cx="767" cy="361" r="3.4" fill="#4d4d4d" opacity="0.9"/><circle cx="757" cy="331" r="3.4" fill="#4d4d4d" opacity="0.9"/><circle cx="632" cy="212" r="3.4" fill="#9a9a9a" opacity="0.9"/><circle cx="691" cy="262" r="3.4" fill="#9a9a9a" opacity="0.9"/><circle cx="592" cy="181" r="3.4" fill="#9a9a9a" opacity="0.9"/><circle cx="575" cy="232" r="3.4" fill="#9a9a9a" opacity="0.9"/><circle cx="631" cy="223" r="3.4" fill="#9a9a9a" opacity="0.9"/><circle cx="654" cy="218" r="3.4" fill="#9a9a9a" opacity="0.9"/><circle cx="669" cy="192" r="3.4" fill="#9a9a9a" opacity="0.9"/><circle cx="587" cy="212" r="3.4" fill="#9a9a9a" opacity="0.9"/><circle cx="632" cy="221" r="3.4" fill="#9a9a9a" opacity="0.9"/><circle cx="690" cy="238" r="3.4" fill="#9a9a9a" opacity="0.9"/><circle cx="622" cy="270" r="3.4" fill="#9a9a9a" opacity="0.9"/><circle cx="615" cy="207" r="3.4" fill="#9a9a9a" opacity="0.9"/><circle cx="628" cy="230" r="3.4" fill="#9a9a9a" opacity="0.9"/><circle cx="644" cy="165" r="3.4" fill="#9a9a9a" opacity="0.9"/><circle cx="635" cy="257" r="3.4" fill="#9a9a9a" opacity="0.9"/><circle cx="599" cy="266" r="3.4" fill="#9a9a9a" opacity="0.9"/><circle cx="660" cy="218" r="3.4" fill="#9a9a9a" opacity="0.9"/><circle cx="615" cy="270" r="3.4" fill="#9a9a9a" opacity="0.9"/><circle cx="643" cy="247" r="3.4" fill="#9a9a9a" opacity="0.9"/><circle cx="681" cy="234" r="3.4" fill="#9a9a9a" opacity="0.9"/><circle cx="643" cy="224" r="3.4" fill="#9a9a9a" opacity="0.9"/><circle cx="624" cy="200" r="3.4" fill="#9a9a9a" opacity="0.9"/>
    <rect x="900" y="180" width="180" height="90" fill="#121212" stroke="#4d4d4d"/>
    <text x="920" y="214" font-family="ui-monospace, SFMono-Regular, Menlo, monospace" font-size="13" fill="#8a8a8a">SEGMENTS</text>
    <text x="920" y="250" font-family="ui-monospace, SFMono-Regular, Menlo, monospace" font-size="30" font-weight="700" fill="hsl(11,90%,55%)">04</text>
    <text x="360" y="540" font-family="ui-monospace, SFMono-Regular, Menlo, monospace" font-size="13" fill="#8a8a8a">RECENCY →</text>
    <text x="316" y="170" text-anchor="end" font-family="ui-monospace, SFMono-Regular, Menlo, monospace" font-size="13" fill="#8a8a8a">FREQ</text>
</svg>