<svg xmlns="http://www.w3.org/2000/svg" viewBox="0 0 1200 675" width="1200" height="675" font-family="ui-monospace, SFMono-Regular, Menlo, monospace">
  
  <defs>
    <pattern id="dots" width="34" height="34" patternUnits="userSpaceOnUse">
      <circle cx="1.5" cy="1.5" r="1.2" fill="#ffffff" opacity="0.05"/>
    </pattern>
    <linearGradient id="fade" x1="0" y1="0" x2="0" y2="1">
      <stop offset="0" stop-color="hsl(11,90%,55%)" stop-opacity="0.35"/>
      <stop offset="1" stop-color="hsl(11,90%,55%)" stop-opacity="0"/>
    </linearGradient>
  </defs>
  
  <rect width="1200" height="675" fill="#0a0a0a"/>
  <rect width="1200" height="675" fill="url(#dots)"/>
  <rect x="28" y="28" width="1144" height="619" fill="none" stroke="#333333" stroke-width="1"/>
  <line x1="28" y1="92" x2="1172" y2="92" stroke="#333333" stroke-width="1"/>
  <line x1="28" y1="611" x2="1172" y2="611" stroke="#333333" stroke-width="1"/>
  <text x="52" y="72" font-family="ui-monospace, SFMono-Regular, Menlo, monospace" font-size="26" font-weight="700" fill="hsl(11,90%,55%)">04</text>
  <text x="92" y="71" font-family="ui-monospace, SFMono-Regular, Menlo, monospace" font-size="16" letter-spacing="4" fill="#8a8a8a">// NLP · MEDIA BIAS</text>
  <text x="52" y="641" font-family="ui-monospace, SFMono-Regular, Menlo, monospace" font-size="16" letter-spacing="3" fill="#f5f5f5">NYT BIAS</text>
  <text x="1148" y="641" text-anchor="end" font-family="ui-monospace, SFMono-Regular, Menlo, monospace" font-size="14" letter-spacing="3" fill="#8a8a8a">JL // 2024</text>
  
    <line x1="600" y1="200" x2="600" y2="340" stroke="#4d4d4d" stroke-width="2"/>
    <g transform="rotate(-9 600 210)">
      <line x1="420" y1="210" x2="780" y2="210" stroke="#f5f5f5" stroke-width="2.5"/>
      <line x1="440" y1="210" x2="440" y2="270" stroke="#4d4d4d" stroke-width="1.5"/>
      <line x1="760" y1="210" x2="760" y2="270" stroke="#4d4d4d" stroke-width="1.5"/>
      <rect x="392" y="270" width="96" height="70" fill="hsl(11,90%,55%)" opacity="0.85"/>
      <rect x="712" y="270" width="96" height="46" fill="#121212" stroke="#4d4d4d"/>
      <text x="440" y="312" text-anchor="middle" font-family="ui-monospace, SFMono-Regular, Menlo, monospace" font-size="16" fill="#fff">86%</text>
      <text x="760" y="298" text-anchor="middle" font-family="ui-monospace, SFMono-Regular, Menlo, monospace" font-size="14" fill="#8a8a8a">14%</text>
    </g>
    <circle cx="600" cy="200" r="6" fill="hsl(11,90%,55%)"/>
    <g font-family="ui-monospace, SFMono-Regular, Menlo, monospace" font-size="12" fill="#8a8a8a">
      <text x="360" y="420">"struck"</text><text x="360" y="446">"strikes"</text><text x="360" y="472">"responds"</text>
      <text x="720" y="420">"fired barrages"</text><text x="720" y="446">"projectiles"</text><text x="720" y="472">"graphic"</text>
    </g>
    <text x="600" y="560" text-anchor="middle" font-family="ui-monospace, SFMono-Regular, Menlo, monospace" font-size="13" fill="#8a8a8a">PRO-ISRAELI ← SENTIMENT · POLARITY · BIAS → PRO-PALESTINIAN</text>
</svg>