<svg xmlns="http://www.w3.org/2000/svg" viewBox="0 0 1200 675" width="1200" height="675" font-family="ui-monospace, SFMono-Regular, Menlo, monospace">
  
  <defs>
    <pattern id="dots" width="34" height="34" patternUnits="userSpaceOnUse">
      <circle cx="1.5" cy="1.5" r="1.2" fill="#ffffff" opacity="0.05"/>
    </pattern>
    <linearGradient id="fade" x1="0" y1="0" x2="0" y2="1">
      <stop offset="0" stop-color="hsl(11,90%,55%)" stop-opacity="0.35"/>
      <stop offset="1" stop-color="hsl(11,90%,55%)" stop-opacity="0"/>
    </linearGradient>
  </defs>
  
  <rect width="1200" height="675" fill="#0a0a0a"/>
  <rect width="1200" height="675" fill="url(#dots)"/>
  <rect x="28" y="28" width="1144" height="619" fill="none" stroke="#333333" stroke-width="1"/>
  <line x1="28" y1="92" x2="1172" y2="92" stroke="#333333" stroke-width="1"/>
  <line x1="28" y1="611" x2="1172" y2="611" stroke="#333333" stroke-width="1"/>
  <text x="52" y="72" font-family="ui-monospace, SFMono-Regular, Menlo, monospace" font-size="26" font-weight="700" fill="hsl(11,90%,55%)">02</text>
  <text x="92" y="71" font-family="ui-monospace, SFMono-Regular, Menlo, monospace" font-size="16" letter-spacing="4" fill="#8a8a8a">// THREAT INTELLIGENCE</text>
  <text x="52" y="641" font-family="ui-monospace, SFMono-Regular, Menlo, monospace" font-size="16" letter-spacing="3" fill="#f5f5f5">FATAL COMPASSION</text>
  <text x="1148" y="641" text-anchor="end" font-family="ui-monospace, SFMono-Regular, Menlo, monospace" font-size="14" letter-spacing="3" fill="#8a8a8a">JL // 2025</text>
  <line x1="360" y1="150" x2="360" y2="570" stroke="#333333" stroke-width="0.6" opacity="0.5"/><line x1="400" y1="150" x2="400" y2="570" stroke="#333333" stroke-width="0.6" opacity="0.5"/><line x1="440" y1="150" x2="440" y2="570" stroke="#333333" stroke-width="0.6" opacity="0.5"/><line x1="480" y1="150" x2="480" y2="570" stroke="#333333" stroke-width="0.6" opacity="0.5"/><line x1="520" y1="150" x2="520" y2="570" stroke="#333333" stroke-width="0.6" opacity="0.5"/><line x1="560" y1="150" x2="560" y2="570" stroke="#333333" stroke-width="0.6" opacity="0.5"/><line x1="600" y1="150" x2="600" y2="570" stroke="#333333" stroke-width="0.6" opacity="0.5"/><line x1="640" y1="150" x2="640" y2="570" stroke="#333333" stroke-width="0.6" opacity="0.5"/><line x1="680" y1="150" x2="680" y2="570" stroke="#333333" stroke-width="0.6" opacity="0.5"/><line x1="720" y1="150" x2="720" y2="570" stroke="#333333" stroke-width="0.6" opacity="0.5"/><line x1="760" y1="150" x2="760" y2="570" stroke="#333333" stroke-width="0.6" opacity="0.5"/><line x1="800" y1="150" x2="800" y2="570" stroke="#333333" stroke-width="0.6" opacity="0.5"/><line x1="840" y1="150" x2="840" y2="570" stroke="#333333" stroke-width="0.6" opacity="0.5"/><line x1="360" y1="180" x2="840" y2="180" stroke="#333333" stroke-width="0.6" opacity="0.5"/><line x1="360" y1="220" x2="840" y2="220" stroke="#333333" stroke-width="0.6" opacity="0.5"/><line x1="360" y1="260" x2="840" y2="260" stroke="#333333" stroke-width="0.6" opacity="0.5"/><line x1="360" y1="300" x2="840" y2="300" stroke="#333333" stroke-width="0.6" opacity="0.5"/><line x1="360" y1="340" x2="840" y2="340" stroke="#333333" stroke-width="0.6" opacity="0.5"/><line x1="360" y1="380" x2="840" y2="380" stroke="#333333" stroke-width="0.6" opacity="0.5"/><line x1="360" y1="420" x2="840" y2="420" stroke="#333333" stroke-width="0.6" opacity="0.5"/><line x1="360" y1="460" x2="840" y2="460" stroke="#333333" stroke-width="0.6" opacity="0.5"/><line x1="360" y1="500" x2="840" y2="500" stroke="#333333" stroke-width="0.6" opacity="0.5"/><line x1="360" y1="540" x2="840" y2="540" stroke="#333333" stroke-width="0.6" opacity="0.5"/><circle cx="600" cy="360" r="60" fill="none" stroke="#4d4d4d" stroke-width="1" opacity="0.8235294117647058"/><circle cx="600" cy="360" r="105" fill="none" stroke="#4d4d4d" stroke-width="1" opacity="0.6911764705882353"/><circle cx="600" cy="360" r="150" fill="none" stroke="#4d4d4d" stroke-width="1" opacity="0.5588235294117647"/><circle cx="600" cy="360" r="195" fill="none" stroke="#4d4d4d" stroke-width="1" opacity="0.42647058823529416"/><circle cx="600" cy="360" r="240" fill="none" stroke="#4d4d4d" stroke-width="1" opacity="0.2941176470588235"/><circle cx="600" cy="360" r="9" fill="hsl(11,90%,55%)"/><circle cx="600" cy="360" r="17" fill="none" stroke="hsl(11,90%,55%)" stroke-width="1" opacity="0.4"/><circle cx="470" cy="300" r="6" fill="hsl(11,90%,55%)"/><circle cx="470" cy="300" r="14" fill="none" stroke="hsl(11,90%,55%)" stroke-width="1" opacity="0.4"/><circle cx="720" cy="430" r="7" fill="hsl(11,90%,55%)"/><circle cx="720" cy="430" r="15" fill="none" stroke="hsl(11,90%,55%)" stroke-width="1" opacity="0.4"/><circle cx="540" cy="470" r="5" fill="hsl(11,90%,55%)"/><circle cx="540" cy="470" r="13" fill="none" stroke="hsl(11,90%,55%)" stroke-width="1" opacity="0.4"/><circle cx="690" cy="280" r="4" fill="hsl(11,90%,55%)"/><circle cx="690" cy="280" r="12" fill="none" stroke="hsl(11,90%,55%)" stroke-width="1" opacity="0.4"/><circle cx="820" cy="360" r="5" fill="hsl(11,90%,55%)"/><circle cx="820" cy="360" r="13" fill="none" stroke="hsl(11,90%,55%)" stroke-width="1" opacity="0.4"/>
    <text x="600" y="600" text-anchor="middle" font-family="ui-monospace, SFMono-Regular, Menlo, monospace" font-size="14" fill="#8a8a8a">4,337 INCIDENTS · 75+ COUNTRIES</text>
</svg>