<svg xmlns="http://www.w3.org/2000/svg" viewBox="0 0 1200 675" width="1200" height="675" font-family="ui-monospace, SFMono-Regular, Menlo, monospace">
  
  <defs>
    <pattern id="dots" width="34" height="34" patternUnits="userSpaceOnUse">
      <circle cx="1.5" cy="1.5" r="1.2" fill="#ffffff" opacity="0.05"/>
    </pattern>
    <linearGradient id="fade" x1="0" y1="0" x2="0" y2="1">
      <stop offset="0" stop-color="hsl(11,90%,55%)" stop-opacity="0.35"/>
      <stop offset="1" stop-color="hsl(11,90%,55%)" stop-opacity="0"/>
    </linearGradient>
  </defs>
  
  <rect width="1200" height="675" fill="#0a0a0a"/>
  <rect width="1200" height="675" fill="url(#dots)"/>
  <rect x="28" y="28" width="1144" height="619" fill="none" stroke="#333333" stroke-width="1"/>
  <line x1="28" y1="92" x2="1172" y2="92" stroke="#333333" stroke-width="1"/>
  <line x1="28" y1="611" x2="1172" y2="611" stroke="#333333" stroke-width="1"/>
  <text x="52" y="72" font-family="ui-monospace, SFMono-Regular, Menlo, monospace" font-size="26" font-weight="700" fill="hsl(11,90%,55%)">08</text>
  <text x="92" y="71" font-family="ui-monospace, SFMono-Regular, Menlo, monospace" font-size="16" letter-spacing="4" fill="#8a8a8a">// AUTOMATION</text>
  <text x="52" y="641" font-family="ui-monospace, SFMono-Regular, Menlo, monospace" font-size="16" letter-spacing="3" fill="#f5f5f5">SWITCH BOT</text>
  <text x="1148" y="641" text-anchor="end" font-family="ui-monospace, SFMono-Regular, Menlo, monospace" font-size="14" letter-spacing="3" fill="#8a8a8a">JL // 2024</text>
  
    <defs><marker id="arw" markerWidth="10" markerHeight="10" refX="6" refY="3" orient="auto"><path d="M0,0 L6,3 L0,6" fill="none" stroke="#4d4d4d"/></marker></defs>
    <rect x="150" y="150" width="900" height="140" rx="6" fill="#121212" stroke="#4d4d4d"/>
    <circle cx="176" cy="170" r="5" fill="hsl(11,90%,55%)"/><circle cx="196" cy="170" r="5" fill="#4d4d4d"/><circle cx="216" cy="170" r="5" fill="#4d4d4d"/>
    <rect x="250" y="158" width="620" height="24" rx="12" fill="#0a0a0a" stroke="#333333"/>
    <text x="270" y="175" font-family="ui-monospace, SFMono-Regular, Menlo, monospace" font-size="13" fill="#8a8a8a">target.com/s?searchTerm=nintendo+switch</text>
    <rect x="150" y="330" width="180" height="70" rx="4" fill="#121212" stroke="#4d4d4d" stroke-width="1"/>
      <text x="240" y="372" text-anchor="middle" font-family="ui-monospace, SFMono-Regular, Menlo, monospace" font-size="14" fill="#f5f5f5">SEARCH</text><line x1="330" y1="365" x2="430" y2="365" stroke="#4d4d4d" stroke-width="1.5" marker-end="url(#arw)"/><rect x="430" y="330" width="180" height="70" rx="4" fill="#121212" stroke="hsl(11,90%,55%)" stroke-width="2"/>
      <text x="520" y="372" text-anchor="middle" font-family="ui-monospace, SFMono-Regular, Menlo, monospace" font-size="14" fill="#f5f5f5">ADD TO CART</text><line x1="610" y1="365" x2="710" y2="365" stroke="#4d4d4d" stroke-width="1.5" marker-end="url(#arw)"/><rect x="710" y="330" width="180" height="70" rx="4" fill="#121212" stroke="#4d4d4d" stroke-width="1"/>
      <text x="800" y="372" text-anchor="middle" font-family="ui-monospace, SFMono-Regular, Menlo, monospace" font-size="14" fill="#f5f5f5">DECLINE PLAN</text>
    <text x="520" y="470" text-anchor="middle" font-family="ui-monospace, SFMono-Regular, Menlo, monospace" font-size="13" fill="#8a8a8a">SELENIUM · STALE-ELEMENT-SAFE · STOPS AT CART</text>
</svg>